<svg xmlns="http://www.w3.org/2000/svg" aria-hidden="true" style="position:absolute;width:0;height:0;overflow:hidden">
<defs>
<symbol id="icon-offer-banner" viewBox="0 0 517 32">
<path fill="#fd9222" style="fill: var(--color1, #fd9222)" d="M52.923 0h-36.923c-8.837 0-16 7.163-16 16s7.163 16 16 16h36.923c8.837 0 16-7.163 16-16s-7.163-16-16-16z"></path>
<path fill="#111" style="fill: var(--color2, #111)" opacity="0.1" d="M116.923 32c8.837 0 16-7.163 16-16s-7.163-16-16-16-16 7.163-16 16c0 8.837 7.163 16 16 16z"></path>
<path fill="#111" style="fill: var(--color2, #111)" opacity="0.1" d="M180.923 32c8.837 0 16-7.163 16-16s-7.163-16-16-16-16 7.163-16 16c0 8.837 7.163 16 16 16z"></path>
<path fill="#111" style="fill: var(--color2, #111)" opacity="0.1" d="M244.923 32c8.837 0 16-7.163 16-16s-7.163-16-16-16c-8.837 0-16 7.163-16 16s7.163 16 16 16z"></path>
<path fill="#111" style="fill: var(--color2, #111)" opacity="0.1" d="M308.923 32c8.837 0 16-7.163 16-16s-7.163-16-16-16-16 7.163-16 16c0 8.837 7.163 16 16 16z"></path>
<path fill="#111" style="fill: var(--color2, #111)" opacity="0.1" d="M372.923 32c8.837 0 16-7.163 16-16s-7.163-16-16-16-16 7.163-16 16c0 8.837 7.163 16 16 16z"></path>
<path fill="#111" style="fill: var(--color2, #111)" opacity="0.1" d="M436.923 32c8.837 0 16-7.163 16-16s-7.163-16-16-16-16 7.163-16 16c0 8.837 7.163 16 16 16z"></path>
<path fill="#111" style="fill: var(--color2, #111)" opacity="0.1" d="M500.923 32c8.837 0 16-7.163 16-16s-7.163-16-16-16-16 7.163-16 16c0 8.837 7.163 16 16 16z"></path>
</symbol>
</defs></svg>